<svg width="16" height="16" viewBox="0 0 16 16" fill="none" xmlns="http://www.w3.org/2000/svg">
<g clip-path="url(#clip0_2944_2396)">
<path d="M8.625 13C9.4535 12.999 10.2478 12.6695 10.8336 12.0836C11.4194 11.4978 11.749 10.7035 11.75 9.87501V4.40189C11.751 4.07336 11.6867 3.74791 11.561 3.4444C11.4352 3.14089 11.2505 2.86535 11.0175 2.63376L9.61625 1.23251C9.38466 0.999494 9.10913 0.814763 8.80561 0.689023C8.5021 0.563284 8.17665 0.499039 7.84812 0.500011H4.875C4.0465 0.501003 3.25222 0.830562 2.66639 1.4164C2.08055 2.00223 1.75099 2.79651 1.75 3.62501V9.87501C1.75099 10.7035 2.08055 11.4978 2.66639 12.0836C3.25222 12.6695 4.0465 12.999 4.875 13H8.625ZM3 9.87501V3.62501C3 3.12773 3.19754 2.65082 3.54917 2.29919C3.90081 1.94756 4.37772 1.75001 4.875 1.75001C4.875 1.75001 7.94938 1.75876 8 1.76501V3.00001C8 3.33153 8.1317 3.64947 8.36612 3.88389C8.60054 4.11831 8.91848 4.25001 9.25 4.25001H10.485C10.4913 4.30064 10.5 9.87501 10.5 9.87501C10.5 10.3723 10.3025 10.8492 9.95083 11.2008C9.59919 11.5525 9.12228 11.75 8.625 11.75H4.875C4.37772 11.75 3.90081 11.5525 3.54917 11.2008C3.19754 10.8492 3 10.3723 3 9.87501ZM14.25 5.50001V12.375C14.249 13.2035 13.9194 13.9978 13.3336 14.5836C12.7478 15.1695 11.9535 15.499 11.125 15.5H5.5C5.33424 15.5 5.17527 15.4342 5.05806 15.317C4.94085 15.1997 4.875 15.0408 4.875 14.875C4.875 14.7093 4.94085 14.5503 5.05806 14.4331C5.17527 14.3159 5.33424 14.25 5.5 14.25H11.125C11.6223 14.25 12.0992 14.0525 12.4508 13.7008C12.8025 13.3492 13 12.8723 13 12.375V5.50001C13 5.33425 13.0658 5.17528 13.1831 5.05807C13.3003 4.94086 13.4592 4.87501 13.625 4.87501C13.7908 4.87501 13.9497 4.94086 14.0669 5.05807C14.1842 5.17528 14.25 5.33425 14.25 5.50001Z" fill="white"/>
</g>
<defs>
<clipPath id="clip0_2944_2396">
<rect width="15" height="15" fill="white" transform="translate(0.5 0.5)"/>
</clipPath>
</defs>
</svg>
